<svg width="378" height="196" viewBox="0 0 378 196" fill="none" xmlns="http://www.w3.org/2000/svg">
<g filter="url(#filter0_d_1_20)">
<rect x="9" y="9" width="345" height="159" rx="32" fill="#282828" style="fill:#282828;fill:color(display-p3 0.1562 0.1562 0.1562);fill-opacity:1;"/>
<rect x="4.5" y="4.5" width="354" height="168" rx="36.5" stroke="white" style="stroke:white;stroke-opacity:1;" stroke-width="9"/>
</g>
<rect x="52" y="81" width="184" height="15" rx="7.5" fill="#3A86FF" style="fill:#3A86FF;fill:color(display-p3 0.2275 0.5255 1.0000);fill-opacity:1;"/>
<rect x="120" y="109" width="158" height="15" rx="7.5" fill="#FF006E" style="fill:#FF006E;fill:color(display-p3 1.0000 0.0000 0.4314);fill-opacity:1;"/>
<rect x="249" y="81" width="54" height="15" rx="7.5" fill="#8338EC" style="fill:#8338EC;fill:color(display-p3 0.5137 0.2196 0.9255);fill-opacity:1;"/>
<rect x="73" y="109" width="29" height="15" rx="7.5" fill="#FFBE0B" style="fill:#FFBE0B;fill:color(display-p3 1.0000 0.7451 0.0431);fill-opacity:1;"/>
<rect x="52" y="52" width="36" height="8" rx="4" fill="#404040" style="fill:#404040;fill:color(display-p3 0.2494 0.2494 0.2494);fill-opacity:1;"/>
<rect x="95" y="52" width="36" height="8" rx="4" fill="#404040" style="fill:#404040;fill:color(display-p3 0.2494 0.2494 0.2494);fill-opacity:1;"/>
<rect x="138" y="52" width="36" height="8" rx="4" fill="#404040" style="fill:#404040;fill:color(display-p3 0.2494 0.2494 0.2494);fill-opacity:1;"/>
<rect x="181" y="52" width="36" height="8" rx="4" fill="#404040" style="fill:#404040;fill:color(display-p3 0.2494 0.2494 0.2494);fill-opacity:1;"/>
<rect x="224" y="52" width="36" height="8" rx="4" fill="#404040" style="fill:#404040;fill:color(display-p3 0.2494 0.2494 0.2494);fill-opacity:1;"/>
<rect x="267" y="52" width="36" height="8" rx="4" fill="#404040" style="fill:#404040;fill:color(display-p3 0.2494 0.2494 0.2494);fill-opacity:1;"/>
<defs>
<filter id="filter0_d_1_20" x="-1.52588e-05" y="-3.05176e-05" width="378" height="196" filterUnits="userSpaceOnUse" color-interpolation-filters="sRGB">
<feFlood flood-opacity="0" result="BackgroundImageFix"/>
<feColorMatrix in="SourceAlpha" type="matrix" values="0 0 0 0 0 0 0 0 0 0 0 0 0 0 0 0 0 0 127 0" result="hardAlpha"/>
<feOffset dx="15" dy="19"/>
<feComposite in2="hardAlpha" operator="out"/>
<feColorMatrix type="matrix" values="0 0 0 0 0 0 0 0 0 0 0 0 0 0 0 0 0 0 0.25 0"/>
<feBlend mode="normal" in2="BackgroundImageFix" result="effect1_dropShadow_1_20"/>
<feBlend mode="normal" in="SourceGraphic" in2="effect1_dropShadow_1_20" result="shape"/>
</filter>
</defs>
</svg>
